<?xml version="1.0" encoding="utf-8"?>
<!-- Generator: Adobe Illustrator 23.0.2, SVG Export Plug-In . SVG Version: 6.00 Build 0)  -->
<svg version="1.1" id="Layer_1" xmlns="http://www.w3.org/2000/svg" xmlns:xlink="http://www.w3.org/1999/xlink" x="0px" y="0px"
	 viewBox="0 0 57.4 58.9" style="enable-background:new 0 0 57.4 58.9;" xml:space="preserve">
<style type="text/css">
	.st0{fill-rule:evenodd;clip-rule:evenodd;fill:#F1F1F1;}
</style>
<path class="st0" d="M41.4,8.8l-12.6-7L16.1,8.7L3.4,15.5L3.4,29.4L3.3,43.2l12.6,7l12.6,7l12.7-6.9l12.7-6.9L54,29.6l0.1-13.8
	L41.4,8.8z M49.5,29.5l-0.1,10.8L39,45.7l-10.4,5.4l-10.4-5.4L7.8,40.2l0.1-10.8L8,18.6l10.4-5.4l4.5-2.3L23,28.6v2.4v14.8
	c0,0,17.8-5.3,16.8-12.5c-0.8-6.2-11.1-3.1-11.1-3.1v-1.7h0V7.9l0.1-0.1l10.4,5.4l10.4,5.4L49.5,29.5z"/>
</svg>
