<?xml version="1.0" encoding="UTF-8" standalone="no"?>
<svg
   xmlns:dc="http://purl.org/dc/elements/1.1/"
   xmlns:cc="http://creativecommons.org/ns#"
   xmlns:rdf="http://www.w3.org/1999/02/22-rdf-syntax-ns#"
   xmlns:svg="http://www.w3.org/2000/svg"
   xmlns="http://www.w3.org/2000/svg"
   xmlns:sodipodi="http://sodipodi.sourceforge.net/DTD/sodipodi-0.dtd"
   xmlns:inkscape="http://www.inkscape.org/namespaces/inkscape"
   version="1.1"
   id="Layer_1"
   x="0px"
   y="0px"
   viewBox="0 0 208 64"
   style="enable-background:new 0 0 256 64;"
   xml:space="preserve"
   sodipodi:docname="logo_dark_with_text.svg"
   inkscape:version="1.0.2 (e86c8708, 2021-01-15)"><metadata
   id="metadata79"><rdf:RDF><cc:Work
       rdf:about=""><dc:format>image/svg+xml</dc:format><dc:type
         rdf:resource="http://purl.org/dc/dcmitype/StillImage" /></cc:Work></rdf:RDF></metadata><defs
   id="defs77" /><sodipodi:namedview
   pagecolor="#ffffff"
   bordercolor="#666666"
   borderopacity="1"
   objecttolerance="10"
   gridtolerance="10"
   guidetolerance="10"
   inkscape:pageopacity="0"
   inkscape:pageshadow="2"
   inkscape:window-width="1701"
   inkscape:window-height="902"
   id="namedview75"
   showgrid="false"
   inkscape:zoom="5.2740385"
   inkscape:cx="104"
   inkscape:cy="32"
   inkscape:window-x="0"
   inkscape:window-y="23"
   inkscape:window-maximized="0"
   inkscape:current-layer="Layer_1" />
<style
   type="text/css"
   id="style61">
	.st0{fill:#1E1E1E;}
	.st1{fill-rule:evenodd;clip-rule:evenodd;fill:url(#SVGID_1_);}
</style>
<polygon
   class="st0"
   points="32,0 61,16 61,48 32,64 3,48 3,16 "
   id="polygon63" />
<linearGradient
   id="SVGID_1_"
   x1="6.625"
   y1="32"
   x2="57.375"
   y2="32">
	<stop
   offset="0"
   style="stop-color:#6D6BA2"
   id="stop65" />
	<stop
   offset="1"
   style="stop-color:#8870A2"
   id="stop67" />
</linearGradient>
<path
   class="st1"
   d="M44.8,11.3l-12.6-7l-12.7,6.9L6.8,18.1L6.7,31.9L6.6,45.7l12.6,7l12.6,7l12.7-6.9l12.7-6.9l0.1-13.8l0.1-13.8  L44.8,11.3z M52.8,32.1l-0.1,10.8l-10.4,5.4l-10.4,5.4l-10.4-5.4l-10.4-5.4l0.1-10.8l0.1-10.8l10.4-5.4l4.5-2.3l0.1,17.7v2.4v14.8  c0,0,17.8-5.3,16.8-12.5C42.3,29.8,32,32.9,32,32.9v-1.7h0V10.4l0.1-0.1l10.4,5.4l10.4,5.4L52.8,32.1z"
   id="path70" />
<g
   aria-label="bardly"
   id="text72"
   style="font-weight:400;font-size:46px;font-family:'Roboto Slab'"><path
     d="m 80.577148,47.97168 q -2.380859,0 -4.132812,-0.898438 -1.751953,-0.920898 -2.919922,-2.695312 L 73.120117,47.5 H 69.301758 V 15.942383 l -3.661133,-0.628906 v -2.852539 h 8.085937 v 13.611328 q 1.145508,-1.617188 2.830079,-2.470704 1.707031,-0.853515 3.975586,-0.853515 3.009765,0 5.121093,1.639648 2.133789,1.617188 3.256836,4.559571 1.145508,2.942382 1.145508,6.850586 v 0.471679 q 0,3.503906 -1.145508,6.131836 -1.123047,2.62793 -3.256836,4.110352 -2.111328,1.459961 -5.076172,1.459961 z m -1.123046,-3.59375 q 3.12207,0 4.626953,-2.223633 1.527343,-2.223633 1.527343,-5.884766 v -0.471679 q 0,-2.807618 -0.673828,-4.918946 -0.673828,-2.133789 -2.043945,-3.324219 -1.370117,-1.21289 -3.481445,-1.21289 -2.043946,0 -3.458985,0.988281 -1.392578,0.988281 -2.223633,2.650391 v 10.736328 q 0.831055,1.68457 2.246094,2.672851 1.4375,0.988282 3.481446,0.988282 z"
     style="font-weight:400;font-size:46px;font-family:'Roboto Slab'"
     id="path81" /><path
     d="m 101.21875,47.97168 q -3.795898,0 -5.772461,-1.841797 -1.976562,-1.864258 -1.976562,-5.233399 0,-2.313476 1.257812,-4.020507 1.280273,-1.729493 3.683594,-2.672852 2.403317,-0.96582 5.749997,-0.96582 h 4.33496 v -2.38086 q 0,-2.201172 -1.34765,-3.414062 -1.3252,-1.212891 -3.75098,-1.212891 -1.52734,0 -2.65039,0.381836 -1.123047,0.359375 -2.043945,1.010742 l -0.47168,3.391602 h -3.414062 v -5.570313 q 1.639648,-1.325195 3.818359,-1.999023 2.178708,-0.696289 4.829098,-0.696289 4.42481,0 6.94043,2.111328 2.51563,2.111328 2.51563,6.041992 v 11.702149 q 0,0.471679 0,0.920898 0.0225,0.449219 0.0674,0.898438 l 2.3584,0.24707 V 47.5 h -6.35645 q -0.20214,-0.988281 -0.31445,-1.774414 -0.1123,-0.786133 -0.15723,-1.572266 -1.28027,1.639649 -3.21191,2.740235 -1.90918,1.078125 -4.08789,1.078125 z m 0.65137,-3.706055 q 2.20117,0 4.02051,-1.055664 1.81933,-1.055664 2.60546,-2.538086 v -4.402344 h -4.49218 q -3.05469,0 -4.582035,1.459961 -1.527344,1.459961 -1.527344,3.256836 0,1.594727 0.988281,2.448242 0.988282,0.831055 2.987308,0.831055 z"
     style="font-weight:400;font-size:46px;font-family:'Roboto Slab'"
     id="path83" /><path
     d="m 118.73828,47.5 v -2.830078 l 3.66113,-0.628906 V 26.678711 l -3.66113,-0.628906 v -2.852539 h 7.61426 l 0.38184,3.099609 0.0449,0.426758 q 1.0332,-1.864258 2.53808,-2.919922 1.52735,-1.055664 3.48145,-1.055664 0.69629,0 1.41504,0.134765 0.74121,0.112305 1.05566,0.22461 l -0.58398,4.110351 -3.07715,-0.179687 q -1.75195,-0.112305 -2.94238,0.808594 -1.19043,0.898437 -1.8418,2.425781 v 13.768555 l 3.66113,0.628906 V 47.5 Z"
     style="font-weight:400;font-size:46px;font-family:'Roboto Slab'"
     id="path85" /><path
     d="m 147.10645,47.97168 q -2.96485,0 -5.09864,-1.459961 -2.11133,-1.482422 -3.23437,-4.110352 -1.12305,-2.62793 -1.12305,-6.131836 v -0.471679 q 0,-3.908204 1.12305,-6.850586 1.12304,-2.942383 3.25683,-4.559571 2.13379,-1.639648 5.1211,-1.639648 2.15625,0 3.7959,0.808594 1.6621,0.786132 2.83007,2.291015 v -9.905273 l -3.66113,-0.628906 v -2.852539 h 3.66113 4.42481 v 31.580078 l 3.66113,0.628906 V 47.5 h -7.50195 l -0.35938,-2.897461 q -1.19043,1.662109 -2.91992,2.515625 -1.70703,0.853516 -3.97558,0.853516 z m 1.12304,-3.59375 q 1.97656,0 3.32422,-0.898438 1.34766,-0.898437 2.22363,-2.538086 v -11.27539 q -0.85351,-1.527344 -2.22363,-2.425782 -1.37012,-0.898437 -3.2793,-0.898437 -2.11132,0 -3.48144,1.21289 -1.37012,1.19043 -2.04395,3.324219 -0.67382,2.111328 -0.67382,4.918946 v 0.471679 q 0,3.661133 1.50488,5.884766 1.50488,2.223633 4.64941,2.223633 z"
     style="font-weight:400;font-size:46px;font-family:'Roboto Slab'"
     id="path87" /><path
     d="m 164.73828,47.5 v -2.830078 l 3.66113,-0.628906 V 15.942383 l -3.66113,-0.628906 v -2.852539 h 8.08594 v 31.580078 l 3.66113,0.628906 V 47.5 Z"
     style="font-weight:400;font-size:46px;font-family:'Roboto Slab'"
     id="path89" /><path
     d="m 184.88574,57.31543 q -0.5166,0 -1.34765,-0.134766 -0.83106,-0.112305 -1.28028,-0.224609 l 0.44922,-3.481446 q 0.38184,0.04492 1.05567,0.06738 0.67382,0.04492 0.92089,0.04492 1.41504,0 2.29102,-1.078125 0.89844,-1.078125 1.66211,-2.942383 l 1.05566,-2.560547 -8.60254,-20.596679 -2.60547,-0.359375 v -2.852539 h 10.19727 v 2.852539 l -2.94238,0.449218 4.73926,12.151368 1.1455,3.166992 h 0.13477 l 5.61523,-15.31836 -3.09961,-0.449218 v -2.852539 h 9.99512 v 2.852539 l -2.51562,0.359375 -9.56836,24.819336 q -0.67383,1.751953 -1.63965,3.12207 -0.94336,1.392578 -2.33594,2.178711 -1.37012,0.786133 -3.32422,0.786133 z"
     style="font-weight:400;font-size:46px;font-family:'Roboto Slab'"
     id="path91" /></g>
</svg>
