<?xml version="1.0" encoding="utf-8"?>
<svg version="1.1" id="Layer_1" xmlns="http://www.w3.org/2000/svg" x="0px" y="0px"
	 viewBox="0 0 64 64" style="enable-background:new 0 0 64 64;" xml:space="preserve">
<style type="text/css">
	.st0{fill:#1E1E1E;}
	.st1{fill-rule:evenodd;clip-rule:evenodd;fill:url(#SVGID_1_);}
</style>
<polygon class="st0" points="32,0 61,16 61,48 32,64 3,48 3,16 "/>
<linearGradient id="SVGID_1_" x1="6.625" y1="32" x2="57.375" y2="32">
	<stop  offset="0" style="stop-color:#6D6BA2"/>
	<stop  offset="1" style="stop-color:#8870A2"/>
</linearGradient>
<path class="st1" d="M44.8,11.3l-12.6-7l-12.7,6.9L6.8,18.1L6.7,31.9L6.6,45.7l12.6,7l12.6,7l12.7-6.9l12.7-6.9l0.1-13.8l0.1-13.8
	L44.8,11.3z M52.8,32.1l-0.1,10.8l-10.4,5.4l-10.4,5.4l-10.4-5.4l-10.4-5.4l0.1-10.8l0.1-10.8l10.4-5.4l4.5-2.3l0.1,17.7v2.4v14.8
	c0,0,17.8-5.3,16.8-12.5C42.3,29.8,32,32.9,32,32.9v-1.7h0V10.4l0.1-0.1l10.4,5.4l10.4,5.4L52.8,32.1z"/>
</svg>
